<?xml version="1.0" encoding="utf-8"?>
<!-- Generator: Adobe Illustrator 24.1.1, SVG Export Plug-In . SVG Version: 6.00 Build 0)  -->
<svg version="1.1" id="Layer_1" xmlns="http://www.w3.org/2000/svg" xmlns:xlink="http://www.w3.org/1999/xlink" x="0px" y="0px"
	width="90" height="90" viewBox="0 0 512 512"  style="enable-background:new 0 0 512 512;" xml:space="preserve">
<style type="text/css">
	.st0{fill-rule:evenodd;clip-rule:evenodd;fill:#002663;}
</style>
<g>
	<path class="st0" d="M85.2,263.4L66.9,219l-18.1,44.4H85.2z M260.1,311.5l-0.1-87.3l-38.7,87.3H198l-38.7-87.4v87.4H105l-10.2-24.9
		H39.3l-10.3,24.9H0L47.7,200h39.6l45.3,105.6V200h43.5l34.9,75.6l32-75.6h44.4v111.5H260.1z M329.8,288.7v-22.2h58.5v-22.8h-58.5
		v-20.3h66.8l29.1,32.5l-30.4,32.7H329.8z M510.4,312h-34.6L443,275L408.9,312H303.3V200.4h107.2l32.8,36.6l33.9-36.6H512
		l-51.8,55.8L510.4,312z"/>
</g>
</svg>
