<?xml version="1.0" encoding="utf-8"?>
<!-- Generator: Adobe Illustrator 24.3.0, SVG Export Plug-In . SVG Version: 6.00 Build 0)  -->
<svg version="1.1" id="Layer_1" xmlns="http://www.w3.org/2000/svg" xmlns:xlink="http://www.w3.org/1999/xlink" x="0px" y="0px"
	 viewBox="0 0 512 512" style="enable-background:new 0 0 512 512;" xml:space="preserve" width="90" height="90">
<style type="text/css">
	.st0{fill:#006095;}
	.st1{fill:#FFFFFF;}
	.st2{fill:#1A1918;}
</style>
<g id="XMLID_1_">
	<path id="XMLID_2_" class="st0" d="M98.73,322.65c36.48,0.14,69.88-29.75,69.88-66.09c0-39.71-33.39-67.21-69.88-67.21H67.3
		c-36.9,0-67.35,27.5-67.35,67.21c0,36.34,30.45,66.23,67.35,66.09H98.73"/>
	<path id="XMLID_3_" class="st1" d="M81.33,292.06V219.8c14.59,5.61,24.84,19.64,24.84,36.06
		C106.17,272.42,95.92,286.45,81.33,292.06 M28.71,255.86c0-16.42,10.38-30.59,24.84-36.06v72.26
		C39.1,286.45,28.71,272.42,28.71,255.86 M67.44,194.82c-33.82,0-61.18,27.36-61.18,61.04s27.36,61.04,61.18,61.04
		s61.18-27.36,61.18-61.04S101.26,194.82,67.44,194.82"/>
	<path id="XMLID_7_" class="st2" d="M190.07,217.98c0-6.31-3.37-5.89-6.45-5.89v-1.82c2.81,0.14,5.61,0.14,8.28,0.14
		c2.95,0,7.02-0.14,12.21-0.14c18.24,0,28.06,12.07,28.06,24.55c0,6.88-4.07,24.41-28.9,24.41c-3.65,0-6.88-0.14-10.24-0.14
		c-3.23,0-6.31,0-9.4,0.14v-1.82c4.21-0.42,6.31-0.56,6.45-5.33L190.07,217.98L190.07,217.98z M196.95,250.95
		c0,5.33,3.93,6.03,7.3,6.03c15.15,0,20.2-11.37,20.2-21.89c0-13.05-8.42-22.59-22.03-22.59c-2.95,0-4.21,0.14-5.47,0.28V250.95z
		 M234.55,257.4h1.4c1.96,0,3.37,0,3.37-2.39v-18.94c0-3.09-1.12-3.51-3.65-4.91v-1.12c3.37-0.98,7.3-2.25,7.58-2.53
		c0.56-0.28,0.98-0.42,1.26-0.42c0.28,0,0.56,0.42,0.56,0.98v26.94c0,2.39,1.54,2.39,3.51,2.39h1.12v1.82
		c-2.39,0-4.91-0.14-7.44-0.14c-2.53,0-5.05,0-7.72,0.14L234.55,257.4L234.55,257.4z M242.13,216.29c-1.82,0-3.51-1.68-3.51-3.51
		s1.68-3.37,3.51-3.37s3.51,1.54,3.51,3.37C245.5,214.75,243.95,216.29,242.13,216.29z M256.3,236.5c0-2.53-0.84-3.23-4.07-4.63
		v-1.26c3.09-0.98,5.89-1.96,9.26-3.37c0.14,0,0.42,0.14,0.42,0.7v4.63c4.07-2.81,7.44-5.19,12.21-5.19c6.03,0,8.14,4.35,8.14,9.82
		v18.1c0,2.39,1.54,2.39,3.51,2.39h1.26v1.82c-2.53,0-4.91-0.14-7.44-0.14s-5.05,0-7.58,0.14v-2.1h1.26c1.96,0,3.37,0,3.37-2.39
		v-18.1c0-4.07-2.39-5.89-6.45-5.89c-2.24,0-5.89,1.82-8.14,3.37v20.77c0,2.39,1.54,2.39,3.51,2.39h1.26v1.82
		c-2.53,0-4.91-0.14-7.44-0.14s-5.05,0-7.58,0.14v-1.96h1.26c1.96,0,3.37,0,3.37-2.39V236.5H256.3z M292.36,239.86
		c-0.14,0.7-0.14,1.68,0,4.07c0.42,6.59,4.77,12.07,10.38,12.07c3.93,0,6.88-2.1,9.54-4.63l0.98,0.98
		c-3.23,4.21-7.3,7.86-13.05,7.86c-11.22,0-13.47-10.8-13.47-15.29c0-13.75,9.26-17.82,14.17-17.82c5.75,0,11.79,3.51,11.93,10.94
		c0,0.42,0,0.84,0,1.26l-0.7,0.42h-19.78V239.86z M304.71,237.62c1.82,0,1.96-0.98,1.96-1.82c0-3.51-2.24-6.45-6.17-6.45
		c-4.35,0-7.3,3.09-8.14,8.14h12.35V237.62z M314.39,257.4h1.96c1.96,0,3.37,0,3.37-2.39v-19.64c0-2.1-2.67-2.67-3.65-3.09v-0.98
		c5.19-2.25,8-4.07,8.56-4.07c0.42,0,0.56,0.14,0.56,0.98v6.31h0.14c1.68-2.67,4.77-7.16,8.98-7.16c1.82,0,4.07,1.12,4.07,3.65
		c0,1.96-1.26,3.65-3.37,3.65c-2.24,0-2.24-1.68-4.63-1.68c-1.26,0-5.19,1.68-5.19,5.89v16.42c0,2.39,1.4,2.39,3.37,2.39h3.93v1.82
		c-3.93-0.14-6.88-0.14-9.82-0.14s-5.89,0-8.42,0.14v-2.1H314.39z M341.47,249.41c0.98,4.63,3.79,8.56,8.84,8.56
		c4.07,0,5.75-2.53,5.75-4.91c0-8.28-15.29-5.61-15.29-16.84c0-3.93,3.23-8.98,10.94-8.98c2.25,0,5.33,0.7,8,2.1l0.56,7.16h-1.82
		c-0.7-4.35-3.23-6.88-7.72-6.88c-2.81,0-5.47,1.54-5.47,4.63c0,8.28,16.28,5.61,16.28,16.7c0,4.63-3.79,9.54-12.07,9.54
		c-2.81,0-6.17-0.98-8.56-2.39l-0.84-8L341.47,249.41z M425.1,222.89h-1.68c-1.4-8.14-7.16-11.51-15.01-11.51
		c-8.14,0-19.78,5.33-19.78,22.17c0,14.17,10.1,24.27,20.91,24.27c7.02,0,12.77-4.77,14.17-12.07l1.54,0.42l-1.54,10.24
		c-2.95,1.82-10.94,3.79-15.57,3.79c-16.42,0-26.8-10.52-26.8-26.38c0-14.31,12.91-24.69,26.66-24.69c5.75,0,11.22,1.82,16.56,3.79
		L425.1,222.89z M427.62,257.4h1.26c1.96,0,3.37,0,3.37-2.39v-39.01c0-4.63-1.12-4.77-3.79-5.47v-1.12c2.81-0.84,5.75-2.1,7.3-3.09
		c0.7-0.42,1.4-0.84,1.54-0.84c0.42,0,0.56,0.42,0.56,0.98v48.41c0,2.39,1.54,2.39,3.51,2.39h1.12v1.82c-2.39,0-4.91-0.14-7.44-0.14
		s-5.05,0-7.72,0.14v-1.68H427.62z M472.66,255.3c0,1.26,0.7,1.4,1.96,1.4c0.84,0,1.96,0,2.81,0v1.54c-3.09,0.28-8.84,1.68-10.1,2.1
		l-0.42-0.28v-5.61c-4.21,3.37-7.44,5.89-12.49,5.89c-3.79,0-7.72-2.39-7.72-8.28v-17.96c0-1.82-0.28-3.65-4.21-3.93v-1.4
		c2.53,0,8.14-0.42,9.12-0.42c0.84,0,0.84,0.42,0.84,1.96v18.1c0,2.1,0,8.14,6.17,8.14c2.39,0,5.61-1.82,8.56-4.21v-18.94
		c0-1.4-3.37-2.1-5.89-2.81v-1.26c6.31-0.42,10.24-0.98,10.94-0.98c0.56,0,0.56,0.42,0.56,1.26v25.68H472.66z M486.69,232.15
		c2.81-2.39,6.59-5.05,10.52-5.05c8.14,0,13.05,7.16,13.05,14.73c0,9.12-6.73,18.38-16.84,18.38c-5.19,0-8-1.68-9.82-2.39l-2.1,1.54
		l-1.4-0.7c0.56-4.07,0.98-8.14,0.98-12.49v-30.17c0-4.63-1.12-4.77-3.79-5.47v-1.12c2.81-0.84,5.75-2.1,7.3-3.09
		c0.84-0.42,1.26-0.84,1.54-0.84c0.42,0,0.56,0.42,0.56,0.98V232.15z M486.69,251.23c0,2.67,2.53,7.16,7.3,7.16
		c7.58,0,10.66-7.44,10.66-13.61c0-7.58-5.75-13.89-11.23-13.89c-2.67,0-4.77,1.68-6.73,3.37L486.69,251.23L486.69,251.23z
		 M183.48,299.92h0.56c1.4,0,2.81-0.14,2.81-2.1v-19.92c0-1.96-1.4-2.25-2.81-2.25h-0.56v-1.12c1.54,0,3.79,0.14,5.61,0.14
		c1.96,0,4.21-0.14,6.03-0.14v1.12h-0.56c-1.4,0-2.81,0.14-2.81,2.25v19.92c0,1.96,1.4,2.1,2.81,2.1h0.56v1.12
		c-1.82,0-4.07-0.14-6.03-0.14c-1.82,0-4.07,0.14-5.61,0.14V299.92z M221.5,293.6L221.5,293.6l0.14-14.45
		c0-3.09-2.25-3.65-3.37-3.65h-0.84v-1.12c1.82,0,3.51,0.14,5.33,0.14c1.54,0,3.09-0.14,4.77-0.14v1.12h-0.56
		c-1.54,0-3.37,0.28-3.37,4.91v17.4c0,1.4,0,2.67,0.28,3.79h-1.4l-19.64-21.89v15.72c0,3.37,0.7,4.49,3.65,4.49h0.7v1.12
		c-1.68,0-3.23-0.14-4.91-0.14s-3.51,0.14-5.19,0.14v-1.12h0.56c2.67,0,3.51-1.82,3.51-4.77v-16.14c0-2.1-1.82-3.37-3.51-3.37h-0.56
		v-1.12c1.4,0,2.95,0.14,4.35,0.14c1.12,0,2.25-0.14,3.37-0.14L221.5,293.6z M233.15,276.35c-2.81,0-2.95,0.7-3.51,3.51h-1.12
		c0.14-1.12,0.28-2.1,0.42-3.23c0.14-1.12,0.28-2.1,0.28-3.23h0.98c0.28,1.12,1.26,1.12,2.24,1.12h19.78c0.98,0,1.96,0,2.1-1.12
		l0.98,0.14c-0.14,0.98-0.28,2.1-0.42,3.09s-0.14,2.1-0.14,3.09l-1.12,0.42c-0.14-1.4-0.28-3.65-2.81-3.65h-6.31v20.2
		c0,2.95,1.4,3.23,3.23,3.23h0.7v1.12c-1.54,0-4.21-0.14-6.17-0.14c-2.24,0-4.91,0.14-6.45,0.14v-1.12h0.7
		c2.1,0,3.23-0.14,3.23-3.23v-20.35H233.15z M256.3,299.92h0.56c1.4,0,2.81-0.14,2.81-2.1v-19.92c0-1.96-1.4-2.25-2.81-2.25h-0.56
		v-1.12c2.39,0,6.31,0.14,9.54,0.14c3.23,0,7.16-0.14,9.82-0.14c0,1.68,0,4.21,0.14,5.89l-1.12,0.28c-0.14-2.53-0.7-4.49-4.63-4.49
		h-5.33v9.96h4.49c2.25,0,2.81-1.26,3.09-3.37h1.12c-0.14,1.54-0.14,2.95-0.14,4.49c0,1.4,0,2.95,0.14,4.35l-1.12,0.28
		c-0.28-2.24-0.28-3.79-2.95-3.79h-4.63v8.84c0,2.53,2.24,2.53,4.63,2.53c4.63,0,6.59-0.28,7.72-4.63l1.12,0.28
		c-0.56,1.96-0.98,4.07-1.26,6.03c-2.39,0-6.88-0.14-10.24-0.14c-3.51,0-8,0.14-10.24,0.14v-1.26H256.3z M283.24,278.45
		c0-2.81-1.54-2.95-2.67-2.95h-0.7v-1.12c1.26,0,3.65,0.14,5.89,0.14c2.24,0,4.07-0.14,6.17-0.14c4.77,0,9.12,1.26,9.12,6.73
		c0,3.37-2.24,5.47-5.33,6.73l6.59,9.82c1.12,1.68,1.82,2.1,3.65,2.24v1.12c-1.26,0-2.53-0.14-3.79-0.14
		c-1.12,0-2.39,0.14-3.65,0.14c-2.95-3.79-5.47-8-8-12.35h-2.53v8.14c0,2.95,1.4,3.09,3.09,3.09h0.7v1.12
		c-2.24,0-4.35-0.14-6.59-0.14c-1.82,0-3.65,0.14-5.61,0.14v-1.12h0.7c1.4,0,2.67-0.7,2.67-2.1v-19.36H283.24z M288.01,287.43h1.82
		c3.79,0,5.89-1.4,5.89-5.89c0-3.37-2.24-5.61-5.61-5.61c-1.12,0-1.68,0.14-2.1,0.14V287.43z M331.79,293.6L331.79,293.6v-14.45
		c0-3.09-2.24-3.65-3.37-3.65h-0.84v-1.12c1.82,0,3.51,0.14,5.33,0.14c1.54,0,3.09-0.14,4.77-0.14v1.12h-0.56
		c-1.54,0-3.37,0.28-3.37,4.91v17.4c0,1.4,0,2.67,0.28,3.79h-1.4l-19.64-21.89v15.72c0,3.37,0.7,4.49,3.65,4.49h0.7v1.12
		c-1.68,0-3.23-0.14-4.91-0.14c-1.68,0-3.51,0.14-5.19,0.14v-1.12h0.56c2.67,0,3.51-1.82,3.51-4.77v-16.14
		c0-2.1-1.82-3.37-3.51-3.37h-0.56v-1.12c1.4,0,2.95,0.14,4.35,0.14c1.12,0,2.24-0.14,3.37-0.14L331.79,293.6z M344,295.71
		c-0.42,1.26-0.84,2.25-0.84,2.95c0,1.12,1.54,1.26,2.81,1.26h0.42v1.12c-1.54-0.14-3.09-0.14-4.63-0.14c-1.4,0-2.81,0-4.07,0.14
		v-1.12h0.28c1.54,0,2.81-0.84,3.37-2.53l6.17-17.54c0.56-1.4,1.12-3.37,1.4-4.77c1.26-0.42,2.81-1.12,3.51-1.68
		c0.14,0,0.14-0.14,0.28-0.14s0.14,0,0.28,0.14c0.14,0.28,0.28,0.7,0.28,0.98l7.02,19.92c0.42,1.4,0.98,2.81,1.4,3.93
		c0.42,1.12,1.26,1.54,2.53,1.54h0.28v1.12c-1.68-0.14-3.51-0.14-5.33-0.14s-3.79,0-5.75,0.14v-1.12h0.42
		c0.84,0,2.39-0.14,2.39-1.12c0-0.56-0.28-1.54-0.84-2.81l-1.54-4.49h-8.7L344,295.71z M349.61,278.73L349.61,278.73l-3.65,10.8
		h7.16L349.61,278.73z M366.03,276.35c-2.81,0-2.95,0.7-3.51,3.51h-1.26c0.14-1.12,0.28-2.1,0.42-3.23c0.14-1.12,0.28-2.1,0.28-3.23
		h0.98c0.28,1.12,1.26,1.12,2.24,1.12h19.78c0.98,0,1.96,0,2.1-1.12l0.98,0.14c-0.14,0.98-0.28,2.1-0.42,3.09
		c-0.14,0.98-0.14,2.1-0.14,3.09l-1.12,0.42c-0.14-1.4-0.28-3.65-2.81-3.65h-6.31v20.2c0,2.95,1.4,3.23,3.23,3.23h0.7v1.12
		c-1.54,0-4.21-0.14-6.17-0.14c-2.24,0-4.91,0.14-6.45,0.14v-1.12h0.7c2.1,0,3.23-0.14,3.23-3.23v-20.35H366.03z M389.32,299.92
		h0.56c1.4,0,2.81-0.14,2.81-2.1v-19.92c0-1.96-1.4-2.25-2.81-2.25h-0.56v-1.12c1.54,0,3.79,0.14,5.61,0.14
		c1.96,0,4.21-0.14,6.03-0.14v1.12h-0.56c-1.4,0-2.81,0.14-2.81,2.25v19.92c0,1.96,1.4,2.1,2.81,2.1h0.56v1.12
		c-1.82,0-4.07-0.14-6.03-0.14c-1.82,0-4.07,0.14-5.61,0.14V299.92z M416.26,273.96c8.14,0,14.59,5.05,14.59,13.19
		c0,8.84-6.31,14.59-14.45,14.59s-14.31-5.47-14.31-13.75C402.09,279.99,408.26,273.96,416.26,273.96z M416.82,300.06
		c7.44,0,8.7-6.59,8.7-12.07c0-5.61-2.95-12.35-9.4-12.35c-6.73,0-8.7,5.89-8.7,11.08C407.56,293.46,410.64,300.06,416.82,300.06z
		 M456.67,293.6L456.67,293.6l0.14-14.45c0-3.09-2.24-3.65-3.37-3.65h-0.84v-1.12c1.82,0,3.51,0.14,5.33,0.14
		c1.54,0,3.09-0.14,4.77-0.14v1.12h-0.56c-1.54,0-3.37,0.28-3.37,4.91v17.4c0,1.4,0,2.67,0.28,3.79h-1.4l-19.64-21.89v15.72
		c0,3.37,0.7,4.49,3.65,4.49h0.7v1.12c-1.68,0-3.23-0.14-4.91-0.14c-1.68,0-3.51,0.14-5.19,0.14v-1.12h0.56
		c2.67,0,3.37-1.82,3.37-4.77v-16.14c0-2.1-1.68-3.37-3.51-3.37h-0.56v-1.12c1.4,0,2.95,0.14,4.35,0.14c1.12,0,2.24-0.14,3.37-0.14
		L456.67,293.6z M468.73,295.71c-0.42,1.26-0.84,2.25-0.84,2.95c0,1.12,1.54,1.26,2.81,1.26h0.42v1.12
		c-1.54-0.14-3.09-0.14-4.63-0.14c-1.4,0-2.81,0-4.07,0.14v-1.12h0.28c1.54,0,2.81-0.84,3.37-2.53l6.17-17.54
		c0.56-1.4,1.12-3.37,1.4-4.77c1.26-0.42,2.81-1.12,3.51-1.68c0.14,0,0.14-0.14,0.28-0.14s0.14,0,0.28,0.14
		c0.14,0.28,0.28,0.7,0.28,0.98l7.02,19.92c0.42,1.4,0.98,2.81,1.4,3.93c0.42,1.12,1.26,1.54,2.53,1.54h0.28v1.12
		c-1.68-0.14-3.51-0.14-5.33-0.14c-1.82,0-3.79,0-5.75,0.14v-1.12h0.42c0.84,0,2.39-0.14,2.39-1.12c0-0.56-0.28-1.54-0.84-2.81
		l-1.54-4.49h-8.7L468.73,295.71z M474.35,278.73L474.35,278.73l-3.65,10.8h7.16L474.35,278.73z M498.76,297.39
		c0,1.54,1.12,1.96,2.25,2.1c1.54,0.14,3.23,0.14,5.05-0.14c1.54-0.14,2.95-1.12,3.65-2.1c0.56-0.84,0.98-1.96,1.12-2.81h1.12
		c-0.42,2.1-0.98,4.35-1.4,6.45c-3.37,0-6.73-0.14-10.1-0.14c-3.37,0-6.73,0.14-10.1,0.14v-1.12h0.56c1.4,0,2.95-0.14,2.95-2.53
		v-19.64c0-1.96-1.54-2.24-2.95-2.24h-0.56v-1.12c1.96,0,4.07,0.14,6.03,0.14c1.96,0,3.93-0.14,5.75-0.14v1.12h-0.98
		c-1.4,0-2.53,0-2.53,2.1v19.92H498.76z"/>
</g>
</svg>
