<svg width="12" height="20" viewBox="0 0 12 20" fill="none" xmlns="http://www.w3.org/2000/svg">
<path d="M9.36871 0.396488L0.564423 9.09506C0.476307 9.18151 0.406311 9.28465 0.358528 9.39847C0.310744 9.51228 0.286133 9.63448 0.286133 9.75792C0.286133 9.88136 0.310744 10.0036 0.358528 10.1174C0.406311 10.2312 0.476307 10.3343 0.564423 10.4208L9.36871 19.1265C9.62804 19.3809 9.97684 19.5234 10.3401 19.5234C10.7034 19.5234 11.0522 19.3809 11.3116 19.1265C11.4387 19.001 11.5397 18.8516 11.6086 18.6868C11.6775 18.522 11.713 18.3451 11.713 18.1665C11.713 17.9879 11.6775 17.811 11.6086 17.6462C11.5397 17.4814 11.4387 17.3319 11.3116 17.2065L3.78014 9.76078L11.313 2.31792C11.4404 2.19244 11.5415 2.04288 11.6106 1.87795C11.6796 1.71302 11.7152 1.536 11.7152 1.3572C11.7152 1.1784 11.6796 1.00139 11.6106 0.836456C11.5415 0.671524 11.4404 0.521967 11.313 0.396488C11.0537 0.142069 10.7049 -0.000455856 10.3416 -0.000455856C9.97827 -0.000455856 9.62947 0.142069 9.37014 0.396488" fill="white"/>
</svg>
